<svg width="160" height="40" viewBox="0 0 160 40" fill="none" xmlns="http://www.w3.org/2000/svg">
<g clip-path="url(#clip0_1_37)">
<path d="M89.7793 15.6069C89.6757 16.3071 89.2072 16.7357 88.3627 16.8976L89.5775 18.8832C91.4951 18.3349 92.4865 17.2424 92.5519 15.6073L92.6282 12.8798V7.95788L89.763 7.95262L89.7793 15.6073V15.6069Z" fill="black"/>
<path d="M100.053 7.51873C99.4375 7.17916 98.7237 7.00675 97.9121 7.00675C97.3075 7.00675 96.7517 7.10063 96.2507 7.29411C95.744 7.48758 95.2973 7.7802 94.9104 8.16145C94.5072 8.54269 94.2076 8.98185 94.0115 9.47804C93.8154 9.97466 93.7171 10.5125 93.7171 11.103C93.7171 11.7352 93.8479 12.3363 94.115 12.9005H94.137L95.4443 15.6069H99.0562C98.9527 16.3071 98.4841 16.7357 97.6396 16.8976L98.8544 18.8832C100.772 18.3349 101.791 17.2424 101.91 15.6073V9.79216C101.834 9.54648 101.731 9.30606 101.595 9.06082C101.186 8.37642 100.668 7.85917 100.053 7.51917V7.51873ZM99.0615 12.8746L97.0403 12.8693C96.5665 12.3832 96.3266 11.8607 96.3266 11.307C96.3266 10.8631 96.4735 10.4972 96.7622 10.2203C97.0509 9.94352 97.4321 9.80795 97.9116 9.80795C98.3911 9.80795 98.7504 9.93869 99.0281 10.1945L99.061 10.2256V12.8746H99.0615Z" fill="black"/>
<path d="M114.12 11.4584C114.12 11.9809 114.082 12.3152 114.011 12.4617C113.93 12.7333 113.613 12.8746 113.053 12.8798H110.427C109.866 12.8746 106.061 12.7338 105.979 12.4617C105.908 12.3157 105.87 11.9809 105.87 11.4584V7.42484H106.05V5.20932H102.999V12.728C102.999 12.9579 103.005 13.1461 103.021 13.2975C103.038 13.4752 103.064 13.6265 103.092 13.7467C103.119 13.8775 103.157 13.9977 103.206 14.1074C103.256 14.2223 103.315 14.332 103.381 14.4311C103.626 14.8023 103.953 15.0897 104.356 15.2932C104.764 15.5021 105.228 15.6065 105.734 15.6065H114.257C114.769 15.6065 115.227 15.5021 115.635 15.2932C116.039 15.0892 116.366 14.8019 116.611 14.4311C116.676 14.332 116.736 14.2223 116.785 14.1074C116.828 14.0078 116.867 13.888 116.905 13.7467C116.932 13.616 116.953 13.4647 116.97 13.2975C116.987 13.1461 116.992 12.9579 116.992 12.728V8.38081H114.121V11.4584H114.12Z" fill="black"/>
<path d="M114.469 16.0877C114.082 16.0877 113.75 16.2185 113.477 16.48C113.199 16.7463 113.063 17.0652 113.063 17.4359C113.063 17.8066 113.199 18.1256 113.477 18.3866C113.75 18.6534 114.082 18.7837 114.469 18.7837C114.856 18.7837 115.188 18.6529 115.466 18.3866C115.738 18.1251 115.875 17.8066 115.875 17.4359C115.875 17.0652 115.738 16.7463 115.466 16.48C115.188 16.2185 114.855 16.0877 114.469 16.0877Z" fill="black"/>
<path d="M135.788 7.28884C136.175 7.28884 136.508 7.1581 136.785 6.8918C137.058 6.63077 137.194 6.31182 137.194 5.9411C137.194 5.57039 137.058 5.25144 136.785 4.98514C136.508 4.72366 136.175 4.59336 135.788 4.59336C135.402 4.59336 135.069 4.7241 134.797 4.98514C134.519 5.25144 134.383 5.57039 134.383 5.9411C134.383 6.31182 134.519 6.63077 134.797 6.8918C135.069 7.15854 135.402 7.28884 135.788 7.28884Z" fill="black"/>
<path d="M139.384 7.28884C139.771 7.28884 140.103 7.1581 140.38 6.8918C140.653 6.63077 140.789 6.31182 140.789 5.9411C140.789 5.57039 140.652 5.25144 140.38 4.98514C140.103 4.72366 139.77 4.59336 139.384 4.59336C138.997 4.59336 138.665 4.7241 138.392 4.98514C138.115 5.25144 137.978 5.57039 137.978 5.9411C137.978 6.31182 138.115 6.63077 138.392 6.8918C138.665 7.15854 138.997 7.28884 139.384 7.28884Z" fill="black"/>
<path d="M138.033 11.4584C138.033 11.9809 137.995 12.3152 137.924 12.4617C137.843 12.7333 137.526 12.8746 136.966 12.8798H129.02L129.026 9.79216C128.949 9.54648 128.846 9.30606 128.71 9.06082C128.301 8.37642 127.784 7.85917 127.168 7.51917C126.553 7.1796 125.839 7.00718 125.027 7.00718C124.422 7.00718 123.867 7.10107 123.366 7.29454C122.859 7.48802 122.413 7.78064 122.026 8.16189C121.623 8.54313 121.323 8.98229 121.127 9.47847C120.931 9.9751 120.833 10.513 120.833 11.1035C120.833 11.7357 120.964 12.3367 121.231 12.9009H121.253L122.56 15.6073H126.172C126.068 16.3075 125.6 16.7362 124.755 16.8981L125.97 18.8837C127.888 18.3353 128.879 17.2429 128.945 15.6078H138.17C138.682 15.6078 139.14 15.5034 139.548 15.2945C139.951 15.0905 140.278 14.8032 140.523 14.4325C140.589 14.3333 140.649 14.2236 140.698 14.1087C140.741 14.0091 140.78 13.8893 140.817 13.7481C140.845 13.6173 140.867 13.466 140.883 13.2988C140.899 13.1475 140.905 12.9593 140.905 12.7294V8.38212H138.034V11.4597L138.033 11.4584ZM126.176 12.8746L124.155 12.8693C123.681 12.3832 123.441 11.8607 123.441 11.307C123.441 10.8631 123.588 10.4972 123.877 10.2203C124.165 9.94351 124.547 9.80795 125.026 9.80795C125.505 9.80795 125.865 9.93869 126.143 10.1945L126.175 10.2256V12.8746H126.176Z" fill="black"/>
<path d="M148.328 7.51873C147.712 7.17916 146.998 7.00675 146.187 7.00675C145.582 7.00675 145.026 7.10063 144.525 7.29411C144.019 7.48758 143.572 7.7802 143.185 8.16145C142.782 8.54269 142.482 8.98185 142.286 9.47804C142.09 9.97466 141.992 10.5125 141.992 11.103C141.992 11.7352 142.123 12.3363 142.39 12.9005H142.412L143.719 15.6069H147.331C147.228 16.3071 146.759 16.7357 145.915 16.8976L147.13 18.8832C149.047 18.3349 150.066 17.2424 150.186 15.6073V9.79216C150.109 9.54648 150.006 9.30606 149.87 9.06082C149.461 8.37642 148.944 7.85917 148.328 7.51917L148.328 7.51873ZM147.337 12.8746L145.316 12.8693C144.841 12.3832 144.602 11.8607 144.602 11.307C144.602 10.8631 144.749 10.4972 145.037 10.2203C145.326 9.94352 145.708 9.80795 146.187 9.80795C146.666 9.80795 147.026 9.93869 147.303 10.1945L147.336 10.2256V12.8746H147.337Z" fill="black"/>
<path d="M152.505 2.73803C152.505 2.05363 152.821 1.71407 153.453 1.71407C153.769 1.71407 154.003 1.79786 154.156 1.95975L155.311 0.851988C155.131 0.63263 154.93 0.454949 154.701 0.324212C154.336 0.110118 153.916 0.00043869 153.453 0.00043869C152.99 0.00043869 152.56 0.110118 152.195 0.324212C151.83 0.538305 151.536 0.851988 151.312 1.26482C151.203 1.46838 151.127 1.71407 151.078 2.01196C151.04 2.24711 151.013 2.51341 151.002 2.8113H150.674V4.48325H154.951V2.8113H152.505V2.73803H152.505Z" fill="black"/>
<path d="M151.274 7.47705H151.704V15.6069H154.352V5.20932H151.274V7.47705Z" fill="black"/>
<path d="M86.9062 18.4322C86.8645 17.8163 86.7294 16.9314 86.2832 15.9886C85.6725 14.6975 84.3946 13.1189 80.841 11.7515C78.0328 10.6709 75.3821 10.3296 67.9614 10.3256C65.7358 10.3243 62.7846 10.3537 59.2951 10.4757C59.035 10.3919 58.6432 10.2572 58.1808 10.0611C56.4387 9.32317 55.4349 8.45627 54.4215 7.70299C53.0843 6.7093 52.0437 6.14598 50.1836 5.13957C49.1693 4.59073 47.6917 3.84886 45.8092 3.10436C44.2158 2.63757 42.3719 2.20148 40.3069 1.89262C38.5156 1.62457 36.8604 1.49778 35.3793 1.45522C33.5731 1.48857 31.6064 1.6079 29.5072 1.8584C26.4625 2.22166 23.7311 2.79024 21.3577 3.42243C18.5377 4.3025 15.7177 5.18256 12.8972 6.06219C13.9159 6.72026 15.089 7.39984 16.4174 8.04431C17.3058 8.47557 17.9853 8.74977 19.3085 9.28149C20.8203 9.88955 22.5992 10.6016 25.0126 11.3926C26.0861 11.7444 27.4501 12.1661 29.05 12.5982C27.8506 11.995 26.8591 11.5181 26.1721 11.193C23.4995 9.92816 22.1632 9.29553 21.5064 9.02133C20.9484 8.78794 20.4421 8.587 19.7709 8.17944C18.8834 7.64069 18.2367 7.06158 17.8186 6.64305C19.8134 5.74324 22.3891 4.80088 25.4741 4.18229C29.7441 3.32591 33.4406 3.40093 36.1032 3.66943C39.7072 3.86378 42.5807 4.56134 44.5448 5.17335C46.5054 5.78404 48.4138 6.39386 50.5942 7.83899C52.8667 9.34554 54.3737 11.0557 55.2765 12.2477C53.6344 12.524 51.4036 12.7982 48.7516 12.8206C45.7495 12.8461 43.5147 12.5376 41.2299 12.2134C38.7911 11.8669 35.6193 11.2908 31.9477 10.28C26.824 8.43696 25.8861 7.5218 25.9751 7.02605C26.0475 6.62287 26.8161 6.40614 28.0379 6.06131C29.8586 5.54757 31.3419 5.55415 31.6801 5.55503C36.0992 5.56468 37.9238 5.71034 37.9238 5.71034C39.8278 5.86257 42.282 6.08983 45.1603 6.43729C43.1041 5.81782 41.2839 5.41201 39.7945 5.13869C38.3068 4.86581 36.8985 4.67804 35.5881 4.55256C35.2999 4.52492 34.7796 4.47754 34.2207 4.44069C32.2824 4.31259 29.8906 4.15509 27.2228 4.61881C26.1528 4.80483 24.6309 5.16194 22.8546 5.91127L21.1607 6.93655C23.4604 8.49794 26.5411 10.2726 30.3872 11.7058C35.8843 13.7546 40.4613 14.1802 43.4169 14.4342C47.2723 14.7659 50.2533 14.6207 54.0315 14.4369C57.6381 14.2614 60.6643 13.9459 62.8807 13.6669C66.6514 13.1089 69.9808 12.7759 72.7508 12.571C75.3163 12.381 78.6891 12.2051 81.8549 13.3923C82.6801 13.7016 83.4899 14.1034 84.2893 14.7497C85.8353 15.9996 86.5679 17.5386 86.9066 18.4309L86.9062 18.4322Z" fill="black"/>
<path d="M5.20705 3.41629C9.56694 6.21662 16.1616 9.88604 24.7437 12.5429C36.23 16.0987 45.7693 16.1356 45.7311 16.5668C45.6982 16.9406 38.5047 17.1644 30.3267 15.5744C24.7976 14.4996 20.2811 12.8798 16.3819 11.4821C12.5567 10.1107 9.43226 8.79364 7.23871 7.81881C6.56134 6.3513 5.88398 4.88379 5.20705 3.41629Z" fill="#DB0A0D"/>
<path d="M19.0501 13.7446C19.1023 13.5322 15.5141 12.406 6.40735 9.90666C5.94934 11.8712 5.32462 13.3199 4.85915 14.2447C4.24934 15.456 3.53732 16.5146 3.50441 16.5633C3.34472 16.7993 3.04772 17.2157 2.46028 18.0387C2.06589 18.5919 1.73861 19.0482 1.51355 19.361C1.8575 19.2421 2.35763 19.0517 2.93365 18.7626C3.808 18.3234 4.92364 17.6237 6.45561 16.0991C8.43244 14.1324 7.87571 13.967 8.76147 13.4546C9.60774 12.9654 10.6076 12.7952 17.0504 13.5673C18.5561 13.7476 19.0317 13.8205 19.0501 13.7446Z" fill="black"/>
<path d="M52.739 16.5291C52.7329 16.4264 54.0245 16.2803 56.2474 16C60.1265 15.5117 59.6255 15.5244 61.8023 15.2673C63.9033 15.019 66.6106 14.6988 69.3661 14.5505C73.1763 14.3452 81.657 13.888 84.2274 17.2065C84.4082 17.4399 85.3229 18.677 85.1496 18.8403C85.0539 18.9306 84.6775 18.6433 84.0427 18.2607C84.0427 18.2607 83.5439 17.9597 81.9084 17.1801C80.2917 16.4098 78.6742 16.1391 78.0587 16.0399C77.4397 15.9403 76.8821 15.8916 73.6642 15.9316C71.8488 15.9544 70.9411 15.9653 69.9378 16.0026C64.7597 16.1952 60.7029 16.5624 55.1879 16.6265C54.0889 16.6392 52.7452 16.6335 52.739 16.5291Z" fill="#DB0A0D"/>
<path d="M8.46753 20.5741L0 39.7991H4.89424L6.02875 37.484H13.3969L14.2743 39.7991H19.4546L10.669 20.5741H8.46753ZM7.70198 33.3047L9.69855 28.5188L11.7223 33.3047H7.70242H7.70198Z" fill="#CB0D0C"/>
<path d="M47.1578 20.5741H29.0527V31.7609C29.0527 33.0617 28.9263 33.9356 28.6741 34.3818C28.4411 34.7705 28.0524 35.1004 27.5093 35.372C26.9657 35.644 26.4024 35.7795 25.8203 35.7795C25.2381 35.7795 24.6796 35.644 24.1457 35.372C23.6113 35.1004 23.2284 34.7705 22.9954 34.3818C22.7427 33.9352 22.6168 33.0617 22.6168 31.7609V20.5741H18.3065V32.2852C18.3065 33.9159 18.5978 35.2268 19.1804 36.2169C19.7819 37.2269 20.6264 38.0517 21.7139 38.6926C22.9564 39.4301 24.3251 39.7991 25.8203 39.7991C27.1206 39.7991 28.3441 39.5174 29.4896 38.9545C30.7904 38.2947 31.7906 37.3817 32.4895 36.2169C33.0721 35.2268 33.3634 33.9159 33.3634 32.2852V25.2947H37.9361V39.7991H42.6149V25.2947H47.1582V20.5741H47.1578Z" fill="#CB0D0C"/>
<path d="M60.4498 21.8924C58.9297 21.0137 57.2915 20.5741 55.5336 20.5741C53.7757 20.5741 52.1648 21.0137 50.6451 21.8924C49.1618 22.7347 47.99 23.8886 47.1297 25.353C46.2325 26.8547 45.7842 28.4661 45.7842 30.1868C45.7842 31.9074 46.2325 33.5193 47.1297 35.0206C47.99 36.467 49.1622 37.6208 50.6451 38.4812C52.1648 39.3599 53.7941 39.7995 55.5336 39.7995C57.2731 39.7995 58.9297 39.3599 60.4498 38.4812C61.9142 37.6208 63.0864 36.467 63.9652 35.0206C64.8619 33.5193 65.3111 31.9079 65.3111 30.1868C65.3111 28.4657 64.8623 26.8547 63.9652 25.353C63.1044 23.907 61.9326 22.7536 60.4498 21.8924ZM59.0433 33.4206C58.1018 34.4836 56.9327 35.0149 55.5362 35.0149C54.3368 35.0149 53.2892 34.5976 52.3933 33.7623C51.3606 32.8059 50.8447 31.6144 50.8447 30.1868C50.8447 28.9421 51.247 27.8638 52.0516 26.953C52.9777 25.8904 54.139 25.3587 55.5362 25.3587C56.7506 25.3587 57.8057 25.7685 58.702 26.5884C59.7343 27.5453 60.2506 28.7447 60.2506 30.1868C60.2506 31.4165 59.8483 32.4949 59.0437 33.4206H59.0433Z" fill="#CB0D0C"/>
<path d="M102.709 21.8924C101.189 21.0137 99.5511 20.5741 97.7932 20.5741C96.0353 20.5741 94.4243 21.0137 92.9046 21.8924C91.4214 22.7347 90.2496 23.8886 89.3893 25.353C88.7632 26.4011 88.3605 27.5036 88.1714 28.6583C88.1697 27.5611 87.9753 24.8033 87.5116 23.8943C86.9873 22.8457 86.22 22.0302 85.211 21.448C85.1276 21.4006 85.0443 21.3554 84.9622 21.312C84.037 20.8232 83.0043 20.5745 81.9575 20.5745H73.2562V40.0004H78.06V35.2162H78.5259C80.3317 35.2162 84.1818 34.9249 85.211 34.3427C86.0652 33.8382 86.764 33.1389 87.308 32.2457C87.6744 31.6315 87.913 30.9019 88.0451 30.1451C88.0451 30.1591 88.0437 30.1732 88.0437 30.1872C88.0437 31.9087 88.4921 33.5197 89.3893 35.021C90.2496 36.4675 91.4218 37.6213 92.9046 38.4816C94.4243 39.3603 96.0537 39.7999 97.7932 39.7999C99.5327 39.7999 101.189 39.3603 102.709 38.4816C104.174 37.6213 105.346 36.4675 106.225 35.021C107.121 33.5197 107.571 31.9083 107.571 30.1872C107.571 28.4661 107.122 26.8552 106.225 25.3534C105.364 23.9074 104.192 22.754 102.709 21.8928V21.8924ZM83.1482 30.0236C82.86 30.4232 82.5257 30.6672 82.3028 30.8041C80.8787 30.8203 79.4547 30.8365 78.0311 30.8528V25.5592C79.3033 25.5539 80.5756 25.5482 81.8474 25.543C82.0804 25.6018 82.4625 25.7312 82.8231 26.0405C83.5838 26.6924 83.658 27.6343 83.6847 27.9752C83.7058 28.2437 83.7646 29.1685 83.1482 30.0236ZM101.303 33.4206C100.361 34.4836 99.1922 35.0149 97.7958 35.0149C96.5964 35.0149 95.5487 34.5976 94.6529 33.7623C93.6202 32.8059 93.1043 31.6144 93.1043 30.1868C93.1043 28.9421 93.5066 27.8638 94.3111 26.953C95.2373 25.8904 96.3985 25.3587 97.7958 25.3587C99.0102 25.3587 100.065 25.7685 100.962 26.5884C101.994 27.5453 102.51 28.7447 102.51 30.1868C102.51 31.4165 102.108 32.4949 101.303 33.4206H101.303Z" fill="#CB0D0C"/>
<path d="M134.708 32.1658H141.057V28.1757H134.708V24.5348H141.843V20.5741H131.305H130.427H126.048L122.586 31.6455L119.275 20.5741H117.321L114.009 31.6455L110.547 20.5741H105.29L112.303 39.7973H115.223L118.303 31.0945L121.373 39.7973H124.292L130.427 22.9826V40H142.105V36.0099H134.708V32.1658Z" fill="#CB0D0C"/>
<path d="M155.747 33.3341C156.228 32.8972 157.443 31.7096 157.979 30.124C158.186 29.5138 158.285 28.8645 158.285 28.8645C158.396 28.1327 158.371 27.5694 158.339 26.9526C158.308 26.3388 158.287 25.9106 158.143 25.3341C158.026 24.8704 157.859 24.4199 157.64 23.982C157.077 22.9335 156.29 22.1179 155.281 21.5357C154.175 20.8952 151.845 20.5745 149.865 20.5745H143.625V40.0004H148.322V34.3384H150.797C150.835 34.3384 150.865 34.3384 150.884 34.3384L154.159 40.0009H160L155.748 33.335L155.747 33.3341ZM153.933 27.8146C153.908 28.1191 153.798 28.8281 153.226 29.437C152.86 29.8266 152.458 30.0139 152.226 30.1008C150.924 30.092 149.622 30.0837 148.321 30.0749V25.2692C149.653 25.2753 150.985 25.2815 152.318 25.2876C152.518 25.3284 152.819 25.4188 153.112 25.6386C154.033 26.3309 153.948 27.6216 153.933 27.8146Z" fill="#CB0D0C"/>
</g>
<defs>
<clipPath id="clip0_1_37">
<rect width="160" height="40" fill="white"/>
</clipPath>
</defs>
</svg>
